M48
;GenerationSoftware,Autodesk,EAGLE,9.5.2*%
;CreationDate,2020-01-04T20:19:20Z*%
FMAT,2
ICI,OFF
METRIC,TZ,000.000
T15C0.350
T14C0.460
T13C0.600
T12C0.610
T11C0.900
T10C0.950
T9C1.000
T8C1.016
T7C1.070
T6C1.100
T5C1.150
T4C1.200
T3C1.350
T2C2.088
T1C3.000
%
G90
M71
T1
X6500Y72000
X83500Y72000
X83500Y4000
X6500Y4000
T2
X27950Y2525
X35250Y2525
T3
X9720Y30500
T4
X49500Y3400
X76700Y3400
X76700Y60000
X49500Y60000
T5
X10500Y13900
X28400Y23540
X88400Y74400
X88400Y71860
X88400Y69320
X88400Y66780
X10500Y11360
X2100Y63000
X4640Y63000
X28400Y21000
T6
X1500Y6880
X58420Y74400
X60960Y74400
X63500Y74400
X1500Y4340
X50800Y74400
X1500Y1800
X1500Y9420
X1500Y11960
X1500Y14500
X53340Y74400
X55880Y74400
T7
X34500Y20320
X34500Y22860
X34500Y25400
T8
X39560Y61950
X44490Y58550
X41950Y58550
X39410Y58550
X88200Y58460
X17200Y70700
X19740Y70700
X22280Y70700
X24820Y70700
X29260Y41400
X31800Y41400
X34340Y41400
X29260Y37900
X31800Y37900
X34340Y37900
X65760Y3700
X68300Y3700
X57900Y3700
X60440Y3700
X55360Y3700
X70840Y3700
X88200Y63540
X88200Y61000
X44640Y61950
X42100Y61950
T9
X73550Y48800
X73550Y45700
X52750Y45700
X52750Y48800
T10
X1480Y30500
T11
X5820Y45090
X5820Y40010
X3280Y40010
X3280Y42550
X5820Y42550
X3280Y45090
T12
X18360Y7600
X23440Y7600
T13
X31600Y3525
X30800Y1725
X30000Y3525
X33200Y3525
X32400Y1725
T14
X13500Y19150
X13500Y17900
T15
X29200Y32600
X30400Y32000
X30350Y47370
X47700Y65240
X39210Y72030
X12532Y28032
X27800Y13170
X62460Y67930
X56860Y69400
X21242Y18995
X25160Y22130
X31650Y43650
X14650Y26100
X11450Y24250
X22640Y18371
X19585Y16772
X84170Y52790
X65540Y72830
X45450Y3480
X20533Y16007
X38160Y73805
X21840Y13020
X25000Y11200
X6900Y35100
X8650Y38200
X26923Y18229
X48350Y56290
X16820Y17540
X19040Y18530
X15880Y20700
X8780Y13620
X12230Y9540
X13600Y23160
X30000Y27000
X36550Y30200
X19050Y25250
X16800Y26000
X61180Y57650
X34030Y17660
X39171Y7931
X84160Y67330
X77040Y63670
X15000Y12500
X29040Y16800
X42680Y15060
X80600Y61500
X67410Y71430
X15517Y10500
X55040Y61960
X33200Y66510
X45379Y64291
X44340Y14390
X28410Y16120
X16425Y10225
X16850Y14650
X45040Y44620
X25910Y15661
X36250Y69410
X23350Y20280
X23260Y23120
X20315Y21481
X11650Y21489
X22300Y17140
X37060Y7400
X37580Y3800
X22100Y14820
X30940Y16840
X30950Y27060
X16900Y13700
X38220Y37790
X20400Y47240
X36800Y16360
X36850Y26360
X21300Y43100
X25200Y35400
X18966Y16084
X43350Y5400
X13647Y24083
X20660Y31290
X32970Y43653
X44400Y54400
X51510Y54410
X58360Y69020
X6155Y17750
X9000Y22500
X20550Y23700
X7100Y17750
X9700Y21900
X20550Y22785
X79850Y64250
X79850Y68400
X29100Y30700
M30