G04 EAGLE Gerber RS-274X export*
G75*
%MOMM*%
%FSLAX34Y34*%
%LPD*%
%IN*%
%IPPOS*%
%AMOC8*
5,1,8,0,0,1.08239X$1,22.5*%
G01*
%ADD10C,0.000000*%
%ADD11C,0.254000*%


D10*
X900000Y0D02*
X900000Y760000D01*
X0Y760000D01*
X0Y0D01*
X900000Y0D01*
X50000Y720000D02*
X50005Y720368D01*
X50018Y720736D01*
X50041Y721103D01*
X50072Y721470D01*
X50113Y721836D01*
X50162Y722201D01*
X50221Y722564D01*
X50288Y722926D01*
X50364Y723287D01*
X50450Y723645D01*
X50543Y724001D01*
X50646Y724354D01*
X50757Y724705D01*
X50877Y725053D01*
X51005Y725398D01*
X51142Y725740D01*
X51287Y726079D01*
X51440Y726413D01*
X51602Y726744D01*
X51771Y727071D01*
X51949Y727393D01*
X52134Y727712D01*
X52327Y728025D01*
X52528Y728334D01*
X52736Y728637D01*
X52952Y728935D01*
X53175Y729228D01*
X53405Y729516D01*
X53642Y729798D01*
X53886Y730073D01*
X54136Y730343D01*
X54393Y730607D01*
X54657Y730864D01*
X54927Y731114D01*
X55202Y731358D01*
X55484Y731595D01*
X55772Y731825D01*
X56065Y732048D01*
X56363Y732264D01*
X56666Y732472D01*
X56975Y732673D01*
X57288Y732866D01*
X57607Y733051D01*
X57929Y733229D01*
X58256Y733398D01*
X58587Y733560D01*
X58921Y733713D01*
X59260Y733858D01*
X59602Y733995D01*
X59947Y734123D01*
X60295Y734243D01*
X60646Y734354D01*
X60999Y734457D01*
X61355Y734550D01*
X61713Y734636D01*
X62074Y734712D01*
X62436Y734779D01*
X62799Y734838D01*
X63164Y734887D01*
X63530Y734928D01*
X63897Y734959D01*
X64264Y734982D01*
X64632Y734995D01*
X65000Y735000D01*
X65368Y734995D01*
X65736Y734982D01*
X66103Y734959D01*
X66470Y734928D01*
X66836Y734887D01*
X67201Y734838D01*
X67564Y734779D01*
X67926Y734712D01*
X68287Y734636D01*
X68645Y734550D01*
X69001Y734457D01*
X69354Y734354D01*
X69705Y734243D01*
X70053Y734123D01*
X70398Y733995D01*
X70740Y733858D01*
X71079Y733713D01*
X71413Y733560D01*
X71744Y733398D01*
X72071Y733229D01*
X72393Y733051D01*
X72712Y732866D01*
X73025Y732673D01*
X73334Y732472D01*
X73637Y732264D01*
X73935Y732048D01*
X74228Y731825D01*
X74516Y731595D01*
X74798Y731358D01*
X75073Y731114D01*
X75343Y730864D01*
X75607Y730607D01*
X75864Y730343D01*
X76114Y730073D01*
X76358Y729798D01*
X76595Y729516D01*
X76825Y729228D01*
X77048Y728935D01*
X77264Y728637D01*
X77472Y728334D01*
X77673Y728025D01*
X77866Y727712D01*
X78051Y727393D01*
X78229Y727071D01*
X78398Y726744D01*
X78560Y726413D01*
X78713Y726079D01*
X78858Y725740D01*
X78995Y725398D01*
X79123Y725053D01*
X79243Y724705D01*
X79354Y724354D01*
X79457Y724001D01*
X79550Y723645D01*
X79636Y723287D01*
X79712Y722926D01*
X79779Y722564D01*
X79838Y722201D01*
X79887Y721836D01*
X79928Y721470D01*
X79959Y721103D01*
X79982Y720736D01*
X79995Y720368D01*
X80000Y720000D01*
X79995Y719632D01*
X79982Y719264D01*
X79959Y718897D01*
X79928Y718530D01*
X79887Y718164D01*
X79838Y717799D01*
X79779Y717436D01*
X79712Y717074D01*
X79636Y716713D01*
X79550Y716355D01*
X79457Y715999D01*
X79354Y715646D01*
X79243Y715295D01*
X79123Y714947D01*
X78995Y714602D01*
X78858Y714260D01*
X78713Y713921D01*
X78560Y713587D01*
X78398Y713256D01*
X78229Y712929D01*
X78051Y712607D01*
X77866Y712288D01*
X77673Y711975D01*
X77472Y711666D01*
X77264Y711363D01*
X77048Y711065D01*
X76825Y710772D01*
X76595Y710484D01*
X76358Y710202D01*
X76114Y709927D01*
X75864Y709657D01*
X75607Y709393D01*
X75343Y709136D01*
X75073Y708886D01*
X74798Y708642D01*
X74516Y708405D01*
X74228Y708175D01*
X73935Y707952D01*
X73637Y707736D01*
X73334Y707528D01*
X73025Y707327D01*
X72712Y707134D01*
X72393Y706949D01*
X72071Y706771D01*
X71744Y706602D01*
X71413Y706440D01*
X71079Y706287D01*
X70740Y706142D01*
X70398Y706005D01*
X70053Y705877D01*
X69705Y705757D01*
X69354Y705646D01*
X69001Y705543D01*
X68645Y705450D01*
X68287Y705364D01*
X67926Y705288D01*
X67564Y705221D01*
X67201Y705162D01*
X66836Y705113D01*
X66470Y705072D01*
X66103Y705041D01*
X65736Y705018D01*
X65368Y705005D01*
X65000Y705000D01*
X64632Y705005D01*
X64264Y705018D01*
X63897Y705041D01*
X63530Y705072D01*
X63164Y705113D01*
X62799Y705162D01*
X62436Y705221D01*
X62074Y705288D01*
X61713Y705364D01*
X61355Y705450D01*
X60999Y705543D01*
X60646Y705646D01*
X60295Y705757D01*
X59947Y705877D01*
X59602Y706005D01*
X59260Y706142D01*
X58921Y706287D01*
X58587Y706440D01*
X58256Y706602D01*
X57929Y706771D01*
X57607Y706949D01*
X57288Y707134D01*
X56975Y707327D01*
X56666Y707528D01*
X56363Y707736D01*
X56065Y707952D01*
X55772Y708175D01*
X55484Y708405D01*
X55202Y708642D01*
X54927Y708886D01*
X54657Y709136D01*
X54393Y709393D01*
X54136Y709657D01*
X53886Y709927D01*
X53642Y710202D01*
X53405Y710484D01*
X53175Y710772D01*
X52952Y711065D01*
X52736Y711363D01*
X52528Y711666D01*
X52327Y711975D01*
X52134Y712288D01*
X51949Y712607D01*
X51771Y712929D01*
X51602Y713256D01*
X51440Y713587D01*
X51287Y713921D01*
X51142Y714260D01*
X51005Y714602D01*
X50877Y714947D01*
X50757Y715295D01*
X50646Y715646D01*
X50543Y715999D01*
X50450Y716355D01*
X50364Y716713D01*
X50288Y717074D01*
X50221Y717436D01*
X50162Y717799D01*
X50113Y718164D01*
X50072Y718530D01*
X50041Y718897D01*
X50018Y719264D01*
X50005Y719632D01*
X50000Y720000D01*
X820000Y720000D02*
X820005Y720368D01*
X820018Y720736D01*
X820041Y721103D01*
X820072Y721470D01*
X820113Y721836D01*
X820162Y722201D01*
X820221Y722564D01*
X820288Y722926D01*
X820364Y723287D01*
X820450Y723645D01*
X820543Y724001D01*
X820646Y724354D01*
X820757Y724705D01*
X820877Y725053D01*
X821005Y725398D01*
X821142Y725740D01*
X821287Y726079D01*
X821440Y726413D01*
X821602Y726744D01*
X821771Y727071D01*
X821949Y727393D01*
X822134Y727712D01*
X822327Y728025D01*
X822528Y728334D01*
X822736Y728637D01*
X822952Y728935D01*
X823175Y729228D01*
X823405Y729516D01*
X823642Y729798D01*
X823886Y730073D01*
X824136Y730343D01*
X824393Y730607D01*
X824657Y730864D01*
X824927Y731114D01*
X825202Y731358D01*
X825484Y731595D01*
X825772Y731825D01*
X826065Y732048D01*
X826363Y732264D01*
X826666Y732472D01*
X826975Y732673D01*
X827288Y732866D01*
X827607Y733051D01*
X827929Y733229D01*
X828256Y733398D01*
X828587Y733560D01*
X828921Y733713D01*
X829260Y733858D01*
X829602Y733995D01*
X829947Y734123D01*
X830295Y734243D01*
X830646Y734354D01*
X830999Y734457D01*
X831355Y734550D01*
X831713Y734636D01*
X832074Y734712D01*
X832436Y734779D01*
X832799Y734838D01*
X833164Y734887D01*
X833530Y734928D01*
X833897Y734959D01*
X834264Y734982D01*
X834632Y734995D01*
X835000Y735000D01*
X835368Y734995D01*
X835736Y734982D01*
X836103Y734959D01*
X836470Y734928D01*
X836836Y734887D01*
X837201Y734838D01*
X837564Y734779D01*
X837926Y734712D01*
X838287Y734636D01*
X838645Y734550D01*
X839001Y734457D01*
X839354Y734354D01*
X839705Y734243D01*
X840053Y734123D01*
X840398Y733995D01*
X840740Y733858D01*
X841079Y733713D01*
X841413Y733560D01*
X841744Y733398D01*
X842071Y733229D01*
X842393Y733051D01*
X842712Y732866D01*
X843025Y732673D01*
X843334Y732472D01*
X843637Y732264D01*
X843935Y732048D01*
X844228Y731825D01*
X844516Y731595D01*
X844798Y731358D01*
X845073Y731114D01*
X845343Y730864D01*
X845607Y730607D01*
X845864Y730343D01*
X846114Y730073D01*
X846358Y729798D01*
X846595Y729516D01*
X846825Y729228D01*
X847048Y728935D01*
X847264Y728637D01*
X847472Y728334D01*
X847673Y728025D01*
X847866Y727712D01*
X848051Y727393D01*
X848229Y727071D01*
X848398Y726744D01*
X848560Y726413D01*
X848713Y726079D01*
X848858Y725740D01*
X848995Y725398D01*
X849123Y725053D01*
X849243Y724705D01*
X849354Y724354D01*
X849457Y724001D01*
X849550Y723645D01*
X849636Y723287D01*
X849712Y722926D01*
X849779Y722564D01*
X849838Y722201D01*
X849887Y721836D01*
X849928Y721470D01*
X849959Y721103D01*
X849982Y720736D01*
X849995Y720368D01*
X850000Y720000D01*
X849995Y719632D01*
X849982Y719264D01*
X849959Y718897D01*
X849928Y718530D01*
X849887Y718164D01*
X849838Y717799D01*
X849779Y717436D01*
X849712Y717074D01*
X849636Y716713D01*
X849550Y716355D01*
X849457Y715999D01*
X849354Y715646D01*
X849243Y715295D01*
X849123Y714947D01*
X848995Y714602D01*
X848858Y714260D01*
X848713Y713921D01*
X848560Y713587D01*
X848398Y713256D01*
X848229Y712929D01*
X848051Y712607D01*
X847866Y712288D01*
X847673Y711975D01*
X847472Y711666D01*
X847264Y711363D01*
X847048Y711065D01*
X846825Y710772D01*
X846595Y710484D01*
X846358Y710202D01*
X846114Y709927D01*
X845864Y709657D01*
X845607Y709393D01*
X845343Y709136D01*
X845073Y708886D01*
X844798Y708642D01*
X844516Y708405D01*
X844228Y708175D01*
X843935Y707952D01*
X843637Y707736D01*
X843334Y707528D01*
X843025Y707327D01*
X842712Y707134D01*
X842393Y706949D01*
X842071Y706771D01*
X841744Y706602D01*
X841413Y706440D01*
X841079Y706287D01*
X840740Y706142D01*
X840398Y706005D01*
X840053Y705877D01*
X839705Y705757D01*
X839354Y705646D01*
X839001Y705543D01*
X838645Y705450D01*
X838287Y705364D01*
X837926Y705288D01*
X837564Y705221D01*
X837201Y705162D01*
X836836Y705113D01*
X836470Y705072D01*
X836103Y705041D01*
X835736Y705018D01*
X835368Y705005D01*
X835000Y705000D01*
X834632Y705005D01*
X834264Y705018D01*
X833897Y705041D01*
X833530Y705072D01*
X833164Y705113D01*
X832799Y705162D01*
X832436Y705221D01*
X832074Y705288D01*
X831713Y705364D01*
X831355Y705450D01*
X830999Y705543D01*
X830646Y705646D01*
X830295Y705757D01*
X829947Y705877D01*
X829602Y706005D01*
X829260Y706142D01*
X828921Y706287D01*
X828587Y706440D01*
X828256Y706602D01*
X827929Y706771D01*
X827607Y706949D01*
X827288Y707134D01*
X826975Y707327D01*
X826666Y707528D01*
X826363Y707736D01*
X826065Y707952D01*
X825772Y708175D01*
X825484Y708405D01*
X825202Y708642D01*
X824927Y708886D01*
X824657Y709136D01*
X824393Y709393D01*
X824136Y709657D01*
X823886Y709927D01*
X823642Y710202D01*
X823405Y710484D01*
X823175Y710772D01*
X822952Y711065D01*
X822736Y711363D01*
X822528Y711666D01*
X822327Y711975D01*
X822134Y712288D01*
X821949Y712607D01*
X821771Y712929D01*
X821602Y713256D01*
X821440Y713587D01*
X821287Y713921D01*
X821142Y714260D01*
X821005Y714602D01*
X820877Y714947D01*
X820757Y715295D01*
X820646Y715646D01*
X820543Y715999D01*
X820450Y716355D01*
X820364Y716713D01*
X820288Y717074D01*
X820221Y717436D01*
X820162Y717799D01*
X820113Y718164D01*
X820072Y718530D01*
X820041Y718897D01*
X820018Y719264D01*
X820005Y719632D01*
X820000Y720000D01*
X820000Y40000D02*
X820005Y40368D01*
X820018Y40736D01*
X820041Y41103D01*
X820072Y41470D01*
X820113Y41836D01*
X820162Y42201D01*
X820221Y42564D01*
X820288Y42926D01*
X820364Y43287D01*
X820450Y43645D01*
X820543Y44001D01*
X820646Y44354D01*
X820757Y44705D01*
X820877Y45053D01*
X821005Y45398D01*
X821142Y45740D01*
X821287Y46079D01*
X821440Y46413D01*
X821602Y46744D01*
X821771Y47071D01*
X821949Y47393D01*
X822134Y47712D01*
X822327Y48025D01*
X822528Y48334D01*
X822736Y48637D01*
X822952Y48935D01*
X823175Y49228D01*
X823405Y49516D01*
X823642Y49798D01*
X823886Y50073D01*
X824136Y50343D01*
X824393Y50607D01*
X824657Y50864D01*
X824927Y51114D01*
X825202Y51358D01*
X825484Y51595D01*
X825772Y51825D01*
X826065Y52048D01*
X826363Y52264D01*
X826666Y52472D01*
X826975Y52673D01*
X827288Y52866D01*
X827607Y53051D01*
X827929Y53229D01*
X828256Y53398D01*
X828587Y53560D01*
X828921Y53713D01*
X829260Y53858D01*
X829602Y53995D01*
X829947Y54123D01*
X830295Y54243D01*
X830646Y54354D01*
X830999Y54457D01*
X831355Y54550D01*
X831713Y54636D01*
X832074Y54712D01*
X832436Y54779D01*
X832799Y54838D01*
X833164Y54887D01*
X833530Y54928D01*
X833897Y54959D01*
X834264Y54982D01*
X834632Y54995D01*
X835000Y55000D01*
X835368Y54995D01*
X835736Y54982D01*
X836103Y54959D01*
X836470Y54928D01*
X836836Y54887D01*
X837201Y54838D01*
X837564Y54779D01*
X837926Y54712D01*
X838287Y54636D01*
X838645Y54550D01*
X839001Y54457D01*
X839354Y54354D01*
X839705Y54243D01*
X840053Y54123D01*
X840398Y53995D01*
X840740Y53858D01*
X841079Y53713D01*
X841413Y53560D01*
X841744Y53398D01*
X842071Y53229D01*
X842393Y53051D01*
X842712Y52866D01*
X843025Y52673D01*
X843334Y52472D01*
X843637Y52264D01*
X843935Y52048D01*
X844228Y51825D01*
X844516Y51595D01*
X844798Y51358D01*
X845073Y51114D01*
X845343Y50864D01*
X845607Y50607D01*
X845864Y50343D01*
X846114Y50073D01*
X846358Y49798D01*
X846595Y49516D01*
X846825Y49228D01*
X847048Y48935D01*
X847264Y48637D01*
X847472Y48334D01*
X847673Y48025D01*
X847866Y47712D01*
X848051Y47393D01*
X848229Y47071D01*
X848398Y46744D01*
X848560Y46413D01*
X848713Y46079D01*
X848858Y45740D01*
X848995Y45398D01*
X849123Y45053D01*
X849243Y44705D01*
X849354Y44354D01*
X849457Y44001D01*
X849550Y43645D01*
X849636Y43287D01*
X849712Y42926D01*
X849779Y42564D01*
X849838Y42201D01*
X849887Y41836D01*
X849928Y41470D01*
X849959Y41103D01*
X849982Y40736D01*
X849995Y40368D01*
X850000Y40000D01*
X849995Y39632D01*
X849982Y39264D01*
X849959Y38897D01*
X849928Y38530D01*
X849887Y38164D01*
X849838Y37799D01*
X849779Y37436D01*
X849712Y37074D01*
X849636Y36713D01*
X849550Y36355D01*
X849457Y35999D01*
X849354Y35646D01*
X849243Y35295D01*
X849123Y34947D01*
X848995Y34602D01*
X848858Y34260D01*
X848713Y33921D01*
X848560Y33587D01*
X848398Y33256D01*
X848229Y32929D01*
X848051Y32607D01*
X847866Y32288D01*
X847673Y31975D01*
X847472Y31666D01*
X847264Y31363D01*
X847048Y31065D01*
X846825Y30772D01*
X846595Y30484D01*
X846358Y30202D01*
X846114Y29927D01*
X845864Y29657D01*
X845607Y29393D01*
X845343Y29136D01*
X845073Y28886D01*
X844798Y28642D01*
X844516Y28405D01*
X844228Y28175D01*
X843935Y27952D01*
X843637Y27736D01*
X843334Y27528D01*
X843025Y27327D01*
X842712Y27134D01*
X842393Y26949D01*
X842071Y26771D01*
X841744Y26602D01*
X841413Y26440D01*
X841079Y26287D01*
X840740Y26142D01*
X840398Y26005D01*
X840053Y25877D01*
X839705Y25757D01*
X839354Y25646D01*
X839001Y25543D01*
X838645Y25450D01*
X838287Y25364D01*
X837926Y25288D01*
X837564Y25221D01*
X837201Y25162D01*
X836836Y25113D01*
X836470Y25072D01*
X836103Y25041D01*
X835736Y25018D01*
X835368Y25005D01*
X835000Y25000D01*
X834632Y25005D01*
X834264Y25018D01*
X833897Y25041D01*
X833530Y25072D01*
X833164Y25113D01*
X832799Y25162D01*
X832436Y25221D01*
X832074Y25288D01*
X831713Y25364D01*
X831355Y25450D01*
X830999Y25543D01*
X830646Y25646D01*
X830295Y25757D01*
X829947Y25877D01*
X829602Y26005D01*
X829260Y26142D01*
X828921Y26287D01*
X828587Y26440D01*
X828256Y26602D01*
X827929Y26771D01*
X827607Y26949D01*
X827288Y27134D01*
X826975Y27327D01*
X826666Y27528D01*
X826363Y27736D01*
X826065Y27952D01*
X825772Y28175D01*
X825484Y28405D01*
X825202Y28642D01*
X824927Y28886D01*
X824657Y29136D01*
X824393Y29393D01*
X824136Y29657D01*
X823886Y29927D01*
X823642Y30202D01*
X823405Y30484D01*
X823175Y30772D01*
X822952Y31065D01*
X822736Y31363D01*
X822528Y31666D01*
X822327Y31975D01*
X822134Y32288D01*
X821949Y32607D01*
X821771Y32929D01*
X821602Y33256D01*
X821440Y33587D01*
X821287Y33921D01*
X821142Y34260D01*
X821005Y34602D01*
X820877Y34947D01*
X820757Y35295D01*
X820646Y35646D01*
X820543Y35999D01*
X820450Y36355D01*
X820364Y36713D01*
X820288Y37074D01*
X820221Y37436D01*
X820162Y37799D01*
X820113Y38164D01*
X820072Y38530D01*
X820041Y38897D01*
X820018Y39264D01*
X820005Y39632D01*
X820000Y40000D01*
X50000Y40000D02*
X50005Y40368D01*
X50018Y40736D01*
X50041Y41103D01*
X50072Y41470D01*
X50113Y41836D01*
X50162Y42201D01*
X50221Y42564D01*
X50288Y42926D01*
X50364Y43287D01*
X50450Y43645D01*
X50543Y44001D01*
X50646Y44354D01*
X50757Y44705D01*
X50877Y45053D01*
X51005Y45398D01*
X51142Y45740D01*
X51287Y46079D01*
X51440Y46413D01*
X51602Y46744D01*
X51771Y47071D01*
X51949Y47393D01*
X52134Y47712D01*
X52327Y48025D01*
X52528Y48334D01*
X52736Y48637D01*
X52952Y48935D01*
X53175Y49228D01*
X53405Y49516D01*
X53642Y49798D01*
X53886Y50073D01*
X54136Y50343D01*
X54393Y50607D01*
X54657Y50864D01*
X54927Y51114D01*
X55202Y51358D01*
X55484Y51595D01*
X55772Y51825D01*
X56065Y52048D01*
X56363Y52264D01*
X56666Y52472D01*
X56975Y52673D01*
X57288Y52866D01*
X57607Y53051D01*
X57929Y53229D01*
X58256Y53398D01*
X58587Y53560D01*
X58921Y53713D01*
X59260Y53858D01*
X59602Y53995D01*
X59947Y54123D01*
X60295Y54243D01*
X60646Y54354D01*
X60999Y54457D01*
X61355Y54550D01*
X61713Y54636D01*
X62074Y54712D01*
X62436Y54779D01*
X62799Y54838D01*
X63164Y54887D01*
X63530Y54928D01*
X63897Y54959D01*
X64264Y54982D01*
X64632Y54995D01*
X65000Y55000D01*
X65368Y54995D01*
X65736Y54982D01*
X66103Y54959D01*
X66470Y54928D01*
X66836Y54887D01*
X67201Y54838D01*
X67564Y54779D01*
X67926Y54712D01*
X68287Y54636D01*
X68645Y54550D01*
X69001Y54457D01*
X69354Y54354D01*
X69705Y54243D01*
X70053Y54123D01*
X70398Y53995D01*
X70740Y53858D01*
X71079Y53713D01*
X71413Y53560D01*
X71744Y53398D01*
X72071Y53229D01*
X72393Y53051D01*
X72712Y52866D01*
X73025Y52673D01*
X73334Y52472D01*
X73637Y52264D01*
X73935Y52048D01*
X74228Y51825D01*
X74516Y51595D01*
X74798Y51358D01*
X75073Y51114D01*
X75343Y50864D01*
X75607Y50607D01*
X75864Y50343D01*
X76114Y50073D01*
X76358Y49798D01*
X76595Y49516D01*
X76825Y49228D01*
X77048Y48935D01*
X77264Y48637D01*
X77472Y48334D01*
X77673Y48025D01*
X77866Y47712D01*
X78051Y47393D01*
X78229Y47071D01*
X78398Y46744D01*
X78560Y46413D01*
X78713Y46079D01*
X78858Y45740D01*
X78995Y45398D01*
X79123Y45053D01*
X79243Y44705D01*
X79354Y44354D01*
X79457Y44001D01*
X79550Y43645D01*
X79636Y43287D01*
X79712Y42926D01*
X79779Y42564D01*
X79838Y42201D01*
X79887Y41836D01*
X79928Y41470D01*
X79959Y41103D01*
X79982Y40736D01*
X79995Y40368D01*
X80000Y40000D01*
X79995Y39632D01*
X79982Y39264D01*
X79959Y38897D01*
X79928Y38530D01*
X79887Y38164D01*
X79838Y37799D01*
X79779Y37436D01*
X79712Y37074D01*
X79636Y36713D01*
X79550Y36355D01*
X79457Y35999D01*
X79354Y35646D01*
X79243Y35295D01*
X79123Y34947D01*
X78995Y34602D01*
X78858Y34260D01*
X78713Y33921D01*
X78560Y33587D01*
X78398Y33256D01*
X78229Y32929D01*
X78051Y32607D01*
X77866Y32288D01*
X77673Y31975D01*
X77472Y31666D01*
X77264Y31363D01*
X77048Y31065D01*
X76825Y30772D01*
X76595Y30484D01*
X76358Y30202D01*
X76114Y29927D01*
X75864Y29657D01*
X75607Y29393D01*
X75343Y29136D01*
X75073Y28886D01*
X74798Y28642D01*
X74516Y28405D01*
X74228Y28175D01*
X73935Y27952D01*
X73637Y27736D01*
X73334Y27528D01*
X73025Y27327D01*
X72712Y27134D01*
X72393Y26949D01*
X72071Y26771D01*
X71744Y26602D01*
X71413Y26440D01*
X71079Y26287D01*
X70740Y26142D01*
X70398Y26005D01*
X70053Y25877D01*
X69705Y25757D01*
X69354Y25646D01*
X69001Y25543D01*
X68645Y25450D01*
X68287Y25364D01*
X67926Y25288D01*
X67564Y25221D01*
X67201Y25162D01*
X66836Y25113D01*
X66470Y25072D01*
X66103Y25041D01*
X65736Y25018D01*
X65368Y25005D01*
X65000Y25000D01*
X64632Y25005D01*
X64264Y25018D01*
X63897Y25041D01*
X63530Y25072D01*
X63164Y25113D01*
X62799Y25162D01*
X62436Y25221D01*
X62074Y25288D01*
X61713Y25364D01*
X61355Y25450D01*
X60999Y25543D01*
X60646Y25646D01*
X60295Y25757D01*
X59947Y25877D01*
X59602Y26005D01*
X59260Y26142D01*
X58921Y26287D01*
X58587Y26440D01*
X58256Y26602D01*
X57929Y26771D01*
X57607Y26949D01*
X57288Y27134D01*
X56975Y27327D01*
X56666Y27528D01*
X56363Y27736D01*
X56065Y27952D01*
X55772Y28175D01*
X55484Y28405D01*
X55202Y28642D01*
X54927Y28886D01*
X54657Y29136D01*
X54393Y29393D01*
X54136Y29657D01*
X53886Y29927D01*
X53642Y30202D01*
X53405Y30484D01*
X53175Y30772D01*
X52952Y31065D01*
X52736Y31363D01*
X52528Y31666D01*
X52327Y31975D01*
X52134Y32288D01*
X51949Y32607D01*
X51771Y32929D01*
X51602Y33256D01*
X51440Y33587D01*
X51287Y33921D01*
X51142Y34260D01*
X51005Y34602D01*
X50877Y34947D01*
X50757Y35295D01*
X50646Y35646D01*
X50543Y35999D01*
X50450Y36355D01*
X50364Y36713D01*
X50288Y37074D01*
X50221Y37436D01*
X50162Y37799D01*
X50113Y38164D01*
X50072Y38530D01*
X50041Y38897D01*
X50018Y39264D01*
X50005Y39632D01*
X50000Y40000D01*
X90450Y305000D02*
X90452Y305166D01*
X90458Y305331D01*
X90468Y305497D01*
X90483Y305662D01*
X90501Y305826D01*
X90523Y305990D01*
X90549Y306154D01*
X90580Y306317D01*
X90614Y306479D01*
X90652Y306640D01*
X90695Y306800D01*
X90741Y306959D01*
X90791Y307117D01*
X90845Y307274D01*
X90902Y307429D01*
X90964Y307583D01*
X91029Y307735D01*
X91098Y307886D01*
X91171Y308035D01*
X91247Y308182D01*
X91327Y308327D01*
X91410Y308470D01*
X91497Y308611D01*
X91588Y308750D01*
X91681Y308887D01*
X91778Y309021D01*
X91879Y309153D01*
X91982Y309282D01*
X92089Y309409D01*
X92199Y309533D01*
X92311Y309654D01*
X92427Y309773D01*
X92546Y309889D01*
X92667Y310001D01*
X92791Y310111D01*
X92918Y310218D01*
X93047Y310321D01*
X93179Y310422D01*
X93313Y310519D01*
X93450Y310612D01*
X93589Y310703D01*
X93730Y310790D01*
X93873Y310873D01*
X94018Y310953D01*
X94165Y311029D01*
X94314Y311102D01*
X94465Y311171D01*
X94617Y311236D01*
X94771Y311298D01*
X94926Y311355D01*
X95083Y311409D01*
X95241Y311459D01*
X95400Y311505D01*
X95560Y311548D01*
X95721Y311586D01*
X95883Y311620D01*
X96046Y311651D01*
X96210Y311677D01*
X96374Y311699D01*
X96538Y311717D01*
X96703Y311732D01*
X96869Y311742D01*
X97034Y311748D01*
X97200Y311750D01*
X97366Y311748D01*
X97531Y311742D01*
X97697Y311732D01*
X97862Y311717D01*
X98026Y311699D01*
X98190Y311677D01*
X98354Y311651D01*
X98517Y311620D01*
X98679Y311586D01*
X98840Y311548D01*
X99000Y311505D01*
X99159Y311459D01*
X99317Y311409D01*
X99474Y311355D01*
X99629Y311298D01*
X99783Y311236D01*
X99935Y311171D01*
X100086Y311102D01*
X100235Y311029D01*
X100382Y310953D01*
X100527Y310873D01*
X100670Y310790D01*
X100811Y310703D01*
X100950Y310612D01*
X101087Y310519D01*
X101221Y310422D01*
X101353Y310321D01*
X101482Y310218D01*
X101609Y310111D01*
X101733Y310001D01*
X101854Y309889D01*
X101973Y309773D01*
X102089Y309654D01*
X102201Y309533D01*
X102311Y309409D01*
X102418Y309282D01*
X102521Y309153D01*
X102622Y309021D01*
X102719Y308887D01*
X102812Y308750D01*
X102903Y308611D01*
X102990Y308470D01*
X103073Y308327D01*
X103153Y308182D01*
X103229Y308035D01*
X103302Y307886D01*
X103371Y307735D01*
X103436Y307583D01*
X103498Y307429D01*
X103555Y307274D01*
X103609Y307117D01*
X103659Y306959D01*
X103705Y306800D01*
X103748Y306640D01*
X103786Y306479D01*
X103820Y306317D01*
X103851Y306154D01*
X103877Y305990D01*
X103899Y305826D01*
X103917Y305662D01*
X103932Y305497D01*
X103942Y305331D01*
X103948Y305166D01*
X103950Y305000D01*
X103948Y304834D01*
X103942Y304669D01*
X103932Y304503D01*
X103917Y304338D01*
X103899Y304174D01*
X103877Y304010D01*
X103851Y303846D01*
X103820Y303683D01*
X103786Y303521D01*
X103748Y303360D01*
X103705Y303200D01*
X103659Y303041D01*
X103609Y302883D01*
X103555Y302726D01*
X103498Y302571D01*
X103436Y302417D01*
X103371Y302265D01*
X103302Y302114D01*
X103229Y301965D01*
X103153Y301818D01*
X103073Y301673D01*
X102990Y301530D01*
X102903Y301389D01*
X102812Y301250D01*
X102719Y301113D01*
X102622Y300979D01*
X102521Y300847D01*
X102418Y300718D01*
X102311Y300591D01*
X102201Y300467D01*
X102089Y300346D01*
X101973Y300227D01*
X101854Y300111D01*
X101733Y299999D01*
X101609Y299889D01*
X101482Y299782D01*
X101353Y299679D01*
X101221Y299578D01*
X101087Y299481D01*
X100950Y299388D01*
X100811Y299297D01*
X100670Y299210D01*
X100527Y299127D01*
X100382Y299047D01*
X100235Y298971D01*
X100086Y298898D01*
X99935Y298829D01*
X99783Y298764D01*
X99629Y298702D01*
X99474Y298645D01*
X99317Y298591D01*
X99159Y298541D01*
X99000Y298495D01*
X98840Y298452D01*
X98679Y298414D01*
X98517Y298380D01*
X98354Y298349D01*
X98190Y298323D01*
X98026Y298301D01*
X97862Y298283D01*
X97697Y298268D01*
X97531Y298258D01*
X97366Y298252D01*
X97200Y298250D01*
X97034Y298252D01*
X96869Y298258D01*
X96703Y298268D01*
X96538Y298283D01*
X96374Y298301D01*
X96210Y298323D01*
X96046Y298349D01*
X95883Y298380D01*
X95721Y298414D01*
X95560Y298452D01*
X95400Y298495D01*
X95241Y298541D01*
X95083Y298591D01*
X94926Y298645D01*
X94771Y298702D01*
X94617Y298764D01*
X94465Y298829D01*
X94314Y298898D01*
X94165Y298971D01*
X94018Y299047D01*
X93873Y299127D01*
X93730Y299210D01*
X93589Y299297D01*
X93450Y299388D01*
X93313Y299481D01*
X93179Y299578D01*
X93047Y299679D01*
X92918Y299782D01*
X92791Y299889D01*
X92667Y299999D01*
X92546Y300111D01*
X92427Y300227D01*
X92311Y300346D01*
X92199Y300467D01*
X92089Y300591D01*
X91982Y300718D01*
X91879Y300847D01*
X91778Y300979D01*
X91681Y301113D01*
X91588Y301250D01*
X91497Y301389D01*
X91410Y301530D01*
X91327Y301673D01*
X91247Y301818D01*
X91171Y301965D01*
X91098Y302114D01*
X91029Y302265D01*
X90964Y302417D01*
X90902Y302571D01*
X90845Y302726D01*
X90791Y302883D01*
X90741Y303041D01*
X90695Y303200D01*
X90652Y303360D01*
X90614Y303521D01*
X90580Y303683D01*
X90549Y303846D01*
X90523Y304010D01*
X90501Y304174D01*
X90483Y304338D01*
X90468Y304503D01*
X90458Y304669D01*
X90452Y304834D01*
X90450Y305000D01*
X10050Y305000D02*
X10052Y305138D01*
X10058Y305275D01*
X10068Y305412D01*
X10082Y305549D01*
X10100Y305685D01*
X10122Y305821D01*
X10147Y305956D01*
X10177Y306090D01*
X10210Y306224D01*
X10248Y306356D01*
X10289Y306487D01*
X10334Y306617D01*
X10383Y306746D01*
X10435Y306873D01*
X10491Y306999D01*
X10551Y307123D01*
X10614Y307245D01*
X10681Y307365D01*
X10751Y307483D01*
X10824Y307600D01*
X10901Y307714D01*
X10982Y307825D01*
X11065Y307935D01*
X11151Y308042D01*
X11241Y308146D01*
X11334Y308248D01*
X11429Y308347D01*
X11527Y308443D01*
X11628Y308536D01*
X11732Y308626D01*
X11838Y308714D01*
X11947Y308798D01*
X12058Y308879D01*
X12172Y308957D01*
X12287Y309031D01*
X12405Y309102D01*
X12525Y309170D01*
X12647Y309234D01*
X12770Y309294D01*
X12895Y309351D01*
X13022Y309405D01*
X13150Y309454D01*
X13280Y309500D01*
X13411Y309542D01*
X13543Y309581D01*
X13676Y309615D01*
X13810Y309646D01*
X13945Y309672D01*
X14081Y309695D01*
X14217Y309714D01*
X14354Y309729D01*
X14491Y309740D01*
X14628Y309747D01*
X14766Y309750D01*
X14903Y309749D01*
X15041Y309744D01*
X15178Y309735D01*
X15315Y309722D01*
X15451Y309705D01*
X15587Y309684D01*
X15722Y309660D01*
X15857Y309631D01*
X15991Y309598D01*
X16123Y309562D01*
X16255Y309522D01*
X16385Y309478D01*
X16514Y309430D01*
X16642Y309378D01*
X16768Y309323D01*
X16892Y309265D01*
X17014Y309202D01*
X17135Y309136D01*
X17254Y309067D01*
X17371Y308994D01*
X17485Y308918D01*
X17598Y308839D01*
X17708Y308756D01*
X17815Y308670D01*
X17920Y308582D01*
X18022Y308490D01*
X18122Y308395D01*
X18219Y308297D01*
X18313Y308197D01*
X18404Y308094D01*
X18492Y307988D01*
X18577Y307880D01*
X18659Y307770D01*
X18738Y307657D01*
X18813Y307542D01*
X18885Y307424D01*
X18953Y307305D01*
X19018Y307184D01*
X19080Y307061D01*
X19137Y306936D01*
X19192Y306810D01*
X19242Y306682D01*
X19289Y306553D01*
X19332Y306422D01*
X19371Y306290D01*
X19407Y306157D01*
X19438Y306023D01*
X19466Y305889D01*
X19490Y305753D01*
X19510Y305617D01*
X19526Y305481D01*
X19538Y305344D01*
X19546Y305206D01*
X19550Y305069D01*
X19550Y304931D01*
X19546Y304794D01*
X19538Y304656D01*
X19526Y304519D01*
X19510Y304383D01*
X19490Y304247D01*
X19466Y304111D01*
X19438Y303977D01*
X19407Y303843D01*
X19371Y303710D01*
X19332Y303578D01*
X19289Y303447D01*
X19242Y303318D01*
X19192Y303190D01*
X19137Y303064D01*
X19080Y302939D01*
X19018Y302816D01*
X18953Y302695D01*
X18885Y302576D01*
X18813Y302458D01*
X18738Y302343D01*
X18659Y302230D01*
X18577Y302120D01*
X18492Y302012D01*
X18404Y301906D01*
X18313Y301803D01*
X18219Y301703D01*
X18122Y301605D01*
X18022Y301510D01*
X17920Y301418D01*
X17815Y301330D01*
X17708Y301244D01*
X17598Y301161D01*
X17485Y301082D01*
X17371Y301006D01*
X17254Y300933D01*
X17135Y300864D01*
X17014Y300798D01*
X16892Y300735D01*
X16768Y300677D01*
X16642Y300622D01*
X16514Y300570D01*
X16385Y300522D01*
X16255Y300478D01*
X16123Y300438D01*
X15991Y300402D01*
X15857Y300369D01*
X15722Y300340D01*
X15587Y300316D01*
X15451Y300295D01*
X15315Y300278D01*
X15178Y300265D01*
X15041Y300256D01*
X14903Y300251D01*
X14766Y300250D01*
X14628Y300253D01*
X14491Y300260D01*
X14354Y300271D01*
X14217Y300286D01*
X14081Y300305D01*
X13945Y300328D01*
X13810Y300354D01*
X13676Y300385D01*
X13543Y300419D01*
X13411Y300458D01*
X13280Y300500D01*
X13150Y300546D01*
X13022Y300595D01*
X12895Y300649D01*
X12770Y300706D01*
X12647Y300766D01*
X12525Y300830D01*
X12405Y300898D01*
X12287Y300969D01*
X12172Y301043D01*
X12058Y301121D01*
X11947Y301202D01*
X11838Y301286D01*
X11732Y301374D01*
X11628Y301464D01*
X11527Y301557D01*
X11429Y301653D01*
X11334Y301752D01*
X11241Y301854D01*
X11151Y301958D01*
X11065Y302065D01*
X10982Y302175D01*
X10901Y302286D01*
X10824Y302400D01*
X10751Y302517D01*
X10681Y302635D01*
X10614Y302755D01*
X10551Y302877D01*
X10491Y303001D01*
X10435Y303127D01*
X10383Y303254D01*
X10334Y303383D01*
X10289Y303513D01*
X10248Y303644D01*
X10210Y303776D01*
X10177Y303910D01*
X10147Y304044D01*
X10122Y304179D01*
X10100Y304315D01*
X10082Y304451D01*
X10068Y304588D01*
X10058Y304725D01*
X10052Y304862D01*
X10050Y305000D01*
D11*
X0Y0D02*
X900000Y0D01*
X900000Y760000D01*
X0Y760000D01*
X0Y0D01*
X65536Y735000D02*
X66604Y734924D01*
X67665Y734771D01*
X68712Y734543D01*
X69740Y734241D01*
X70744Y733867D01*
X71719Y733422D01*
X72659Y732908D01*
X73560Y732329D01*
X74418Y731687D01*
X75228Y730985D01*
X75985Y730228D01*
X76687Y729418D01*
X77329Y728560D01*
X77908Y727659D01*
X78422Y726719D01*
X78867Y725744D01*
X79241Y724740D01*
X79543Y723712D01*
X79771Y722665D01*
X79924Y721604D01*
X80000Y720536D01*
X80000Y719464D01*
X79924Y718396D01*
X79771Y717335D01*
X79543Y716288D01*
X79241Y715260D01*
X78867Y714256D01*
X78422Y713281D01*
X77908Y712341D01*
X77329Y711440D01*
X76687Y710582D01*
X75985Y709772D01*
X75228Y709015D01*
X74418Y708313D01*
X73560Y707671D01*
X72659Y707092D01*
X71719Y706578D01*
X70744Y706133D01*
X69740Y705759D01*
X68712Y705457D01*
X67665Y705229D01*
X66604Y705076D01*
X65536Y705000D01*
X64464Y705000D01*
X63396Y705076D01*
X62335Y705229D01*
X61288Y705457D01*
X60260Y705759D01*
X59256Y706133D01*
X58281Y706578D01*
X57341Y707092D01*
X56440Y707671D01*
X55582Y708313D01*
X54772Y709015D01*
X54015Y709772D01*
X53313Y710582D01*
X52671Y711440D01*
X52092Y712341D01*
X51578Y713281D01*
X51133Y714256D01*
X50759Y715260D01*
X50457Y716288D01*
X50229Y717335D01*
X50076Y718396D01*
X50000Y719464D01*
X50000Y720536D01*
X50076Y721604D01*
X50229Y722665D01*
X50457Y723712D01*
X50759Y724740D01*
X51133Y725744D01*
X51578Y726719D01*
X52092Y727659D01*
X52671Y728560D01*
X53313Y729418D01*
X54015Y730228D01*
X54772Y730985D01*
X55582Y731687D01*
X56440Y732329D01*
X57341Y732908D01*
X58281Y733422D01*
X59256Y733867D01*
X60260Y734241D01*
X61288Y734543D01*
X62335Y734771D01*
X63396Y734924D01*
X64464Y735000D01*
X65536Y735000D01*
X835536Y735000D02*
X836604Y734924D01*
X837665Y734771D01*
X838712Y734543D01*
X839740Y734241D01*
X840744Y733867D01*
X841719Y733422D01*
X842659Y732908D01*
X843560Y732329D01*
X844418Y731687D01*
X845228Y730985D01*
X845985Y730228D01*
X846687Y729418D01*
X847329Y728560D01*
X847908Y727659D01*
X848422Y726719D01*
X848867Y725744D01*
X849241Y724740D01*
X849543Y723712D01*
X849771Y722665D01*
X849924Y721604D01*
X850000Y720536D01*
X850000Y719464D01*
X849924Y718396D01*
X849771Y717335D01*
X849543Y716288D01*
X849241Y715260D01*
X848867Y714256D01*
X848422Y713281D01*
X847908Y712341D01*
X847329Y711440D01*
X846687Y710582D01*
X845985Y709772D01*
X845228Y709015D01*
X844418Y708313D01*
X843560Y707671D01*
X842659Y707092D01*
X841719Y706578D01*
X840744Y706133D01*
X839740Y705759D01*
X838712Y705457D01*
X837665Y705229D01*
X836604Y705076D01*
X835536Y705000D01*
X834464Y705000D01*
X833396Y705076D01*
X832335Y705229D01*
X831288Y705457D01*
X830260Y705759D01*
X829256Y706133D01*
X828281Y706578D01*
X827341Y707092D01*
X826440Y707671D01*
X825582Y708313D01*
X824772Y709015D01*
X824015Y709772D01*
X823313Y710582D01*
X822671Y711440D01*
X822092Y712341D01*
X821578Y713281D01*
X821133Y714256D01*
X820759Y715260D01*
X820457Y716288D01*
X820229Y717335D01*
X820076Y718396D01*
X820000Y719464D01*
X820000Y720536D01*
X820076Y721604D01*
X820229Y722665D01*
X820457Y723712D01*
X820759Y724740D01*
X821133Y725744D01*
X821578Y726719D01*
X822092Y727659D01*
X822671Y728560D01*
X823313Y729418D01*
X824015Y730228D01*
X824772Y730985D01*
X825582Y731687D01*
X826440Y732329D01*
X827341Y732908D01*
X828281Y733422D01*
X829256Y733867D01*
X830260Y734241D01*
X831288Y734543D01*
X832335Y734771D01*
X833396Y734924D01*
X834464Y735000D01*
X835536Y735000D01*
X835536Y55000D02*
X836604Y54924D01*
X837665Y54771D01*
X838712Y54543D01*
X839740Y54241D01*
X840744Y53867D01*
X841719Y53422D01*
X842659Y52908D01*
X843560Y52329D01*
X844418Y51687D01*
X845228Y50985D01*
X845985Y50228D01*
X846687Y49418D01*
X847329Y48560D01*
X847908Y47659D01*
X848422Y46719D01*
X848867Y45744D01*
X849241Y44740D01*
X849543Y43712D01*
X849771Y42665D01*
X849924Y41604D01*
X850000Y40536D01*
X850000Y39464D01*
X849924Y38396D01*
X849771Y37335D01*
X849543Y36288D01*
X849241Y35260D01*
X848867Y34256D01*
X848422Y33281D01*
X847908Y32341D01*
X847329Y31440D01*
X846687Y30582D01*
X845985Y29772D01*
X845228Y29015D01*
X844418Y28313D01*
X843560Y27671D01*
X842659Y27092D01*
X841719Y26578D01*
X840744Y26133D01*
X839740Y25759D01*
X838712Y25457D01*
X837665Y25229D01*
X836604Y25076D01*
X835536Y25000D01*
X834464Y25000D01*
X833396Y25076D01*
X832335Y25229D01*
X831288Y25457D01*
X830260Y25759D01*
X829256Y26133D01*
X828281Y26578D01*
X827341Y27092D01*
X826440Y27671D01*
X825582Y28313D01*
X824772Y29015D01*
X824015Y29772D01*
X823313Y30582D01*
X822671Y31440D01*
X822092Y32341D01*
X821578Y33281D01*
X821133Y34256D01*
X820759Y35260D01*
X820457Y36288D01*
X820229Y37335D01*
X820076Y38396D01*
X820000Y39464D01*
X820000Y40536D01*
X820076Y41604D01*
X820229Y42665D01*
X820457Y43712D01*
X820759Y44740D01*
X821133Y45744D01*
X821578Y46719D01*
X822092Y47659D01*
X822671Y48560D01*
X823313Y49418D01*
X824015Y50228D01*
X824772Y50985D01*
X825582Y51687D01*
X826440Y52329D01*
X827341Y52908D01*
X828281Y53422D01*
X829256Y53867D01*
X830260Y54241D01*
X831288Y54543D01*
X832335Y54771D01*
X833396Y54924D01*
X834464Y55000D01*
X835536Y55000D01*
X65536Y55000D02*
X66604Y54924D01*
X67665Y54771D01*
X68712Y54543D01*
X69740Y54241D01*
X70744Y53867D01*
X71719Y53422D01*
X72659Y52908D01*
X73560Y52329D01*
X74418Y51687D01*
X75228Y50985D01*
X75985Y50228D01*
X76687Y49418D01*
X77329Y48560D01*
X77908Y47659D01*
X78422Y46719D01*
X78867Y45744D01*
X79241Y44740D01*
X79543Y43712D01*
X79771Y42665D01*
X79924Y41604D01*
X80000Y40536D01*
X80000Y39464D01*
X79924Y38396D01*
X79771Y37335D01*
X79543Y36288D01*
X79241Y35260D01*
X78867Y34256D01*
X78422Y33281D01*
X77908Y32341D01*
X77329Y31440D01*
X76687Y30582D01*
X75985Y29772D01*
X75228Y29015D01*
X74418Y28313D01*
X73560Y27671D01*
X72659Y27092D01*
X71719Y26578D01*
X70744Y26133D01*
X69740Y25759D01*
X68712Y25457D01*
X67665Y25229D01*
X66604Y25076D01*
X65536Y25000D01*
X64464Y25000D01*
X63396Y25076D01*
X62335Y25229D01*
X61288Y25457D01*
X60260Y25759D01*
X59256Y26133D01*
X58281Y26578D01*
X57341Y27092D01*
X56440Y27671D01*
X55582Y28313D01*
X54772Y29015D01*
X54015Y29772D01*
X53313Y30582D01*
X52671Y31440D01*
X52092Y32341D01*
X51578Y33281D01*
X51133Y34256D01*
X50759Y35260D01*
X50457Y36288D01*
X50229Y37335D01*
X50076Y38396D01*
X50000Y39464D01*
X50000Y40536D01*
X50076Y41604D01*
X50229Y42665D01*
X50457Y43712D01*
X50759Y44740D01*
X51133Y45744D01*
X51578Y46719D01*
X52092Y47659D01*
X52671Y48560D01*
X53313Y49418D01*
X54015Y50228D01*
X54772Y50985D01*
X55582Y51687D01*
X56440Y52329D01*
X57341Y52908D01*
X58281Y53422D01*
X59256Y53867D01*
X60260Y54241D01*
X61288Y54543D01*
X62335Y54771D01*
X63396Y54924D01*
X64464Y55000D01*
X65536Y55000D01*
X90450Y305332D02*
X90515Y305992D01*
X90644Y306642D01*
X90837Y307277D01*
X91091Y307889D01*
X91403Y308474D01*
X91772Y309026D01*
X92193Y309539D01*
X92662Y310007D01*
X93174Y310428D01*
X93726Y310797D01*
X94311Y311109D01*
X94923Y311363D01*
X95558Y311556D01*
X96208Y311685D01*
X96868Y311750D01*
X97532Y311750D01*
X98192Y311685D01*
X98842Y311556D01*
X99477Y311363D01*
X100089Y311109D01*
X100674Y310797D01*
X101226Y310428D01*
X101739Y310007D01*
X102207Y309539D01*
X102628Y309026D01*
X102997Y308474D01*
X103309Y307889D01*
X103563Y307277D01*
X103756Y306642D01*
X103885Y305992D01*
X103950Y305332D01*
X103950Y304668D01*
X103885Y304008D01*
X103756Y303358D01*
X103563Y302723D01*
X103309Y302111D01*
X102997Y301526D01*
X102628Y300974D01*
X102207Y300462D01*
X101739Y299993D01*
X101226Y299572D01*
X100674Y299203D01*
X100089Y298891D01*
X99477Y298637D01*
X98842Y298444D01*
X98192Y298315D01*
X97532Y298250D01*
X96868Y298250D01*
X96208Y298315D01*
X95558Y298444D01*
X94923Y298637D01*
X94311Y298891D01*
X93726Y299203D01*
X93174Y299572D01*
X92662Y299993D01*
X92193Y300462D01*
X91772Y300974D01*
X91403Y301526D01*
X91091Y302111D01*
X90837Y302723D01*
X90644Y303358D01*
X90515Y304008D01*
X90450Y304668D01*
X90450Y305332D01*
X10050Y305267D02*
X10110Y305797D01*
X10228Y306317D01*
X10405Y306821D01*
X10636Y307301D01*
X10920Y307753D01*
X11253Y308170D01*
X11630Y308547D01*
X12047Y308880D01*
X12499Y309164D01*
X12979Y309395D01*
X13483Y309572D01*
X14003Y309690D01*
X14533Y309750D01*
X15067Y309750D01*
X15597Y309690D01*
X16117Y309572D01*
X16621Y309395D01*
X17101Y309164D01*
X17553Y308880D01*
X17970Y308547D01*
X18347Y308170D01*
X18680Y307753D01*
X18964Y307301D01*
X19195Y306821D01*
X19372Y306317D01*
X19490Y305797D01*
X19550Y305267D01*
X19550Y304733D01*
X19490Y304203D01*
X19372Y303683D01*
X19195Y303179D01*
X18964Y302699D01*
X18680Y302247D01*
X18347Y301830D01*
X17970Y301453D01*
X17553Y301120D01*
X17101Y300836D01*
X16621Y300605D01*
X16117Y300428D01*
X15597Y300310D01*
X15067Y300250D01*
X14533Y300250D01*
X14003Y300310D01*
X13483Y300428D01*
X12979Y300605D01*
X12499Y300836D01*
X12047Y301120D01*
X11630Y301453D01*
X11253Y301830D01*
X10920Y302247D01*
X10636Y302699D01*
X10405Y303179D01*
X10228Y303683D01*
X10110Y304203D01*
X10050Y304733D01*
X10050Y305267D01*
M02*
