G04 EAGLE Gerber RS-274X export*
G75*
%MOMM*%
%FSLAX34Y34*%
%LPD*%
%INSilkscreen Bottom*%
%IPPOS*%
%AMOC8*
5,1,8,0,0,1.08239X$1,22.5*%
G01*
%ADD10C,0.200000*%
%ADD11C,0.100000*%
%ADD12C,0.101600*%


D10*
X737000Y550500D02*
X526000Y550500D01*
X526000Y395500D01*
X737000Y395500D01*
X737000Y550500D01*
D11*
X752500Y567000D02*
X510500Y567000D01*
X510500Y379000D01*
X752500Y379000D01*
X752500Y567000D01*
X581500Y550500D02*
X526450Y550500D01*
X526000Y508000D01*
X526000Y438000D02*
X526000Y395500D01*
X576500Y395500D01*
X681500Y550500D02*
X737000Y550500D01*
X737000Y508000D01*
X737000Y438000D02*
X737000Y395500D01*
X686500Y395500D01*
D12*
X736686Y555907D02*
X736686Y565652D01*
X736686Y555907D02*
X734737Y553958D01*
X730839Y553958D01*
X728890Y555907D01*
X728890Y565652D01*
X724992Y563703D02*
X723043Y565652D01*
X719145Y565652D01*
X717196Y563703D01*
X717196Y561754D01*
X719145Y559805D01*
X721094Y559805D01*
X719145Y559805D02*
X717196Y557856D01*
X717196Y555907D01*
X719145Y553958D01*
X723043Y553958D01*
X724992Y555907D01*
M02*
