G04 EAGLE Gerber RS-274X export*
G75*
%MOMM*%
%FSLAX34Y34*%
%LPD*%
%INSoldermask Top*%
%IPPOS*%
%AMOC8*
5,1,8,0,0,1.08239X$1,22.5*%
G01*
%ADD10R,1.223200X2.023200*%
%ADD11C,3.203200*%
%ADD12C,1.928200*%
%ADD13R,1.808200X1.808200*%
%ADD14C,1.808200*%
%ADD15R,1.219200X1.727200*%
%ADD16R,1.727200X1.219200*%
%ADD17R,1.731200X0.853200*%
%ADD18R,2.023200X1.223200*%
%ADD19R,3.503200X2.003200*%
%ADD20C,1.238200*%
%ADD21R,1.233200X2.073200*%
%ADD22R,1.253200X2.003200*%
%ADD23R,0.803200X1.503200*%
%ADD24R,2.003200X1.253200*%
%ADD25R,2.023200X1.363200*%
%ADD26R,1.928200X1.928200*%
%ADD27R,1.153200X1.153200*%
%ADD28C,1.828800*%
%ADD29R,1.678200X0.503200*%
%ADD30R,0.503200X1.678200*%
%ADD31R,0.903200X3.103200*%
%ADD32C,1.553200*%
%ADD33C,1.153200*%
%ADD34C,1.320800*%
%ADD35R,1.983200X0.913200*%
%ADD36R,1.728200X0.853200*%
%ADD37R,2.003200X2.803200*%
%ADD38R,2.803200X2.003200*%
%ADD39R,3.633200X1.053200*%
%ADD40R,1.203200X1.203200*%
%ADD41R,1.203200X0.803200*%
%ADD42R,0.803200X0.803200*%
%ADD43R,1.503200X0.803200*%
%ADD44R,1.303200X0.703200*%
%ADD45R,0.703200X1.303200*%
%ADD46C,2.082800*%
%ADD47R,6.203200X6.203200*%
%ADD48C,1.727200*%
%ADD49C,2.253200*%
%ADD50R,1.703200X1.703200*%
%ADD51R,1.203200X2.953200*%
%ADD52R,2.953200X1.203200*%
%ADD53C,1.311200*%
%ADD54C,3.335200*%
%ADD55R,1.853200X1.853200*%
%ADD56C,1.853200*%
%ADD57R,2.128200X0.853200*%
%ADD58C,2.503200*%
%ADD59C,0.959600*%


D10*
X177500Y231600D03*
X149500Y231600D03*
D11*
X65000Y720000D03*
X835000Y720000D03*
X835000Y40000D03*
X65000Y40000D03*
D12*
X884000Y744000D03*
X884000Y718600D03*
X884000Y693200D03*
X884000Y667800D03*
D13*
X345000Y254000D03*
D14*
X345000Y228600D03*
X345000Y203200D03*
D15*
X356650Y629900D03*
X343950Y629900D03*
X331250Y629900D03*
X318550Y629900D03*
X305850Y629900D03*
X293150Y629900D03*
X280450Y629900D03*
X267750Y629900D03*
X255050Y629900D03*
X242350Y629900D03*
X229650Y629900D03*
X216950Y629900D03*
X204250Y629900D03*
X191550Y629900D03*
X178850Y629900D03*
X166150Y629900D03*
X153450Y629900D03*
X140750Y629900D03*
X128050Y629900D03*
X115350Y629900D03*
D16*
X102650Y579100D03*
X102650Y566400D03*
X102650Y553700D03*
X102650Y541000D03*
X102650Y528300D03*
X102650Y515600D03*
X102650Y502900D03*
D15*
X115350Y452100D03*
X128050Y452100D03*
X140750Y452100D03*
X153450Y452100D03*
X166150Y452100D03*
X178850Y452100D03*
X191550Y452100D03*
X204250Y452100D03*
X216950Y452100D03*
X229650Y452100D03*
X242350Y452100D03*
X255050Y452100D03*
X267750Y452100D03*
X280450Y452100D03*
X293150Y452100D03*
X305850Y452100D03*
X318550Y452100D03*
X331250Y452100D03*
X343950Y452100D03*
X356650Y452100D03*
D17*
X502710Y652150D03*
X502710Y664850D03*
X502710Y677550D03*
X502710Y690250D03*
X448490Y690250D03*
X448490Y677550D03*
X448490Y664850D03*
X448490Y652150D03*
D18*
X43000Y118000D03*
X43000Y146000D03*
X426600Y680200D03*
X426600Y652200D03*
D17*
X272890Y332050D03*
X272890Y319350D03*
X272890Y306650D03*
X272890Y293950D03*
X327110Y293950D03*
X327110Y306650D03*
X327110Y319350D03*
X327110Y332050D03*
D18*
X135000Y125200D03*
X135000Y153200D03*
D19*
X193000Y277000D03*
X149000Y277000D03*
D20*
X135000Y179000D03*
X135000Y191500D03*
D21*
X116200Y192000D03*
X87800Y192000D03*
X116200Y168000D03*
X87800Y168000D03*
D18*
X348000Y330000D03*
X348000Y302000D03*
D22*
X259500Y416400D03*
X229500Y416400D03*
X229500Y392400D03*
X259500Y392400D03*
D23*
X191500Y407500D03*
X210500Y407500D03*
X201000Y428500D03*
D24*
X206000Y383000D03*
X206000Y353000D03*
D25*
X310800Y106950D03*
X310800Y77450D03*
D24*
X223900Y9200D03*
X223900Y39200D03*
D18*
X200900Y8300D03*
X200900Y36300D03*
D26*
X105000Y139000D03*
D12*
X105000Y113600D03*
D27*
X66500Y124000D03*
X81500Y124000D03*
D22*
X55000Y87000D03*
X85000Y87000D03*
D26*
X21000Y630000D03*
D12*
X46400Y630000D03*
D27*
X30500Y604000D03*
X15500Y604000D03*
D24*
X76800Y600800D03*
X76800Y630800D03*
D28*
X58200Y425500D03*
X32800Y425500D03*
X32800Y400100D03*
X58200Y400100D03*
X58200Y450900D03*
X32800Y450900D03*
D29*
X154620Y187500D03*
X154620Y182500D03*
X154620Y177500D03*
X154620Y172500D03*
X154620Y167500D03*
X154620Y162500D03*
X154620Y157500D03*
X154620Y152500D03*
X154620Y147500D03*
X154620Y142500D03*
X154620Y137500D03*
X154620Y132500D03*
D30*
X169500Y117620D03*
X174500Y117620D03*
X179500Y117620D03*
X184500Y117620D03*
X189500Y117620D03*
X194500Y117620D03*
X199500Y117620D03*
X204500Y117620D03*
X209500Y117620D03*
X214500Y117620D03*
X219500Y117620D03*
X224500Y117620D03*
D29*
X239380Y132500D03*
X239380Y137500D03*
X239380Y142500D03*
X239380Y147500D03*
X239380Y152500D03*
X239380Y157500D03*
X239380Y162500D03*
X239380Y167500D03*
X239380Y172500D03*
X239380Y177500D03*
X239380Y182500D03*
X239380Y187500D03*
D30*
X224500Y202380D03*
X219500Y202380D03*
X214500Y202380D03*
X209500Y202380D03*
X204500Y202380D03*
X199500Y202380D03*
X194500Y202380D03*
X189500Y202380D03*
X184500Y202380D03*
X179500Y202380D03*
X174500Y202380D03*
X169500Y202380D03*
D31*
X81400Y327000D03*
X81400Y283000D03*
X68700Y327000D03*
X68700Y283000D03*
X56000Y327000D03*
X56000Y283000D03*
X43300Y327000D03*
X43300Y283000D03*
X30600Y327000D03*
X30600Y283000D03*
D32*
X97200Y305000D03*
D33*
X14800Y305000D03*
D10*
X193000Y226000D03*
X221000Y226000D03*
X237000Y112000D03*
X265000Y112000D03*
D34*
X234400Y81588D02*
X234400Y70412D01*
X183600Y70412D02*
X183600Y81588D01*
D35*
X142000Y89400D03*
X142000Y58600D03*
X279000Y92400D03*
X279000Y61600D03*
D24*
X885000Y528000D03*
X885000Y558000D03*
X861000Y528000D03*
X861000Y558000D03*
X449900Y19600D03*
X449900Y49600D03*
D36*
X744380Y740050D03*
X744380Y727350D03*
X744380Y714650D03*
X744380Y701950D03*
X798620Y701950D03*
X798620Y714650D03*
X798620Y727350D03*
X798620Y740050D03*
X672380Y659550D03*
X672380Y646850D03*
X672380Y634150D03*
X672380Y621450D03*
X726620Y621450D03*
X726620Y634150D03*
X726620Y646850D03*
X726620Y659550D03*
D37*
X706000Y729900D03*
X706000Y696900D03*
D18*
X671100Y727500D03*
X671100Y699500D03*
D10*
X826000Y674000D03*
X854000Y674000D03*
D38*
X790500Y657000D03*
X757500Y657000D03*
X646500Y591000D03*
X613500Y591000D03*
D18*
X584000Y605000D03*
X584000Y577000D03*
D39*
X342500Y73000D03*
X342500Y119000D03*
D40*
X354700Y56900D03*
X339700Y56900D03*
D25*
X391100Y9450D03*
X391100Y38950D03*
D41*
X396800Y69100D03*
D42*
X379800Y69100D03*
X379800Y50100D03*
X398800Y50100D03*
D43*
X855500Y576500D03*
X855500Y595500D03*
X834500Y586000D03*
D44*
X845200Y613600D03*
X822200Y613600D03*
D22*
X355400Y176700D03*
X325400Y176700D03*
D45*
X350800Y158000D03*
X350800Y135000D03*
D22*
X725000Y599000D03*
X695000Y599000D03*
X725000Y578000D03*
X695000Y578000D03*
X850000Y643000D03*
X820000Y643000D03*
D46*
X882000Y635400D03*
X882000Y610000D03*
X882000Y584600D03*
X446400Y619500D03*
X421000Y619500D03*
X395600Y619500D03*
X444900Y585500D03*
X419500Y585500D03*
X394100Y585500D03*
D47*
X495000Y34000D03*
X495000Y600000D03*
X767000Y600000D03*
X767000Y34000D03*
D48*
X172000Y699380D02*
X172000Y714620D01*
X197400Y714620D02*
X197400Y699380D01*
X222800Y699380D02*
X222800Y714620D01*
X248200Y714620D02*
X248200Y699380D01*
D49*
X45000Y554000D03*
D50*
X17500Y526500D03*
X17500Y581500D03*
X72500Y581500D03*
X72500Y526500D03*
D51*
X51000Y249750D03*
X51000Y192250D03*
X11000Y249750D03*
X11000Y192250D03*
D46*
X292600Y414000D03*
X318000Y414000D03*
X343400Y414000D03*
X292600Y379000D03*
X318000Y379000D03*
X343400Y379000D03*
D52*
X168750Y358000D03*
X111250Y358000D03*
X168750Y398000D03*
X111250Y398000D03*
D53*
X332000Y35250D03*
X324000Y17250D03*
X316000Y35250D03*
X308000Y17250D03*
X300000Y35250D03*
D54*
X352500Y25250D03*
X279500Y25250D03*
D48*
X657600Y29380D02*
X657600Y44620D01*
X683000Y44620D02*
X683000Y29380D01*
X708400Y29380D02*
X708400Y44620D01*
X553600Y44620D02*
X553600Y29380D01*
X579000Y29380D02*
X579000Y44620D01*
X604400Y44620D02*
X604400Y29380D01*
D55*
X635000Y744000D03*
D56*
X609600Y744000D03*
X584200Y744000D03*
X558800Y744000D03*
X533400Y744000D03*
X508000Y744000D03*
D55*
X15000Y18000D03*
D56*
X15000Y43400D03*
X15000Y68800D03*
X15000Y94200D03*
X15000Y119600D03*
X15000Y145000D03*
D24*
X442300Y745100D03*
X442300Y715100D03*
D22*
X405600Y698000D03*
X375600Y698000D03*
D43*
X404500Y719100D03*
X404500Y738100D03*
X383500Y728600D03*
D24*
X561000Y608000D03*
X561000Y578000D03*
X537000Y578000D03*
X537000Y608000D03*
D18*
X252000Y303000D03*
X252000Y331000D03*
X525300Y675800D03*
X525300Y647800D03*
D10*
X146000Y430000D03*
X174000Y430000D03*
D22*
X70000Y253000D03*
X100000Y253000D03*
D26*
X284000Y210000D03*
D12*
X284000Y235400D03*
D24*
X252000Y240000D03*
X252000Y210000D03*
D57*
X550380Y719450D03*
X550380Y706750D03*
X550380Y694050D03*
X550380Y681350D03*
X550380Y668650D03*
X550380Y655950D03*
X550380Y643250D03*
X550380Y630550D03*
X644620Y630550D03*
X644620Y643250D03*
X644620Y655950D03*
X644620Y668650D03*
X644620Y681350D03*
X644620Y694050D03*
X644620Y706750D03*
X644620Y719450D03*
D58*
X735500Y488000D03*
X735500Y457000D03*
X527500Y457000D03*
X527500Y488000D03*
D24*
X466200Y714900D03*
X466200Y744900D03*
D18*
X525200Y691500D03*
X525200Y719500D03*
D59*
X316500Y436500D03*
X146500Y261000D03*
X114500Y242500D03*
X226400Y183714D03*
X195846Y167725D03*
X841700Y527900D03*
X655400Y728300D03*
X454500Y34800D03*
X205333Y160067D03*
X381600Y738052D03*
X218400Y130200D03*
X250000Y112000D03*
X69000Y351000D03*
X86500Y382000D03*
X269233Y182286D03*
X168200Y175400D03*
X190400Y185300D03*
X158800Y207000D03*
X87800Y136200D03*
X122300Y95400D03*
X136000Y231600D03*
X125318Y280318D03*
X300000Y270000D03*
X365500Y302000D03*
X190500Y252500D03*
X168000Y260000D03*
X611800Y576500D03*
X340300Y176600D03*
X391714Y79314D03*
X841600Y673300D03*
X770400Y636700D03*
X150000Y125000D03*
X290400Y168000D03*
X426800Y150600D03*
X806000Y615000D03*
X674100Y714300D03*
X155166Y105000D03*
X550400Y619600D03*
X332000Y665100D03*
X453789Y642911D03*
X443400Y143900D03*
X284100Y161200D03*
X164254Y102254D03*
X168500Y146500D03*
X450400Y446200D03*
X259100Y156614D03*
X362500Y694100D03*
X233500Y202800D03*
X232600Y231200D03*
X203152Y214807D03*
X116500Y214886D03*
X223000Y171400D03*
X370600Y74000D03*
X375800Y38000D03*
X221000Y148200D03*
X309400Y168400D03*
X309500Y270600D03*
X169000Y137000D03*
X382200Y377900D03*
X368000Y163600D03*
X368500Y263600D03*
X213000Y431000D03*
X252000Y354000D03*
X189662Y160841D03*
X433500Y54000D03*
X204000Y472400D03*
X136474Y240826D03*
X206600Y312900D03*
X329700Y436528D03*
X444000Y544000D03*
X515100Y544100D03*
X583600Y690200D03*
X61552Y177500D03*
X90000Y225000D03*
X205500Y237000D03*
X71000Y177500D03*
X97000Y219000D03*
X205500Y227847D03*
X798500Y642500D03*
X798500Y684000D03*
X291000Y307000D03*
X292000Y326000D03*
X304000Y320000D03*
X303500Y473700D03*
X477000Y652400D03*
X392100Y720300D03*
X483500Y562900D03*
X278000Y131700D03*
X624600Y679300D03*
X568600Y694000D03*
X212416Y189953D03*
X251600Y221300D03*
M02*
