G04 EAGLE Gerber RS-274X export*
G75*
%MOMM*%
%FSLAX34Y34*%
%LPD*%
%INSoldermask Bottom*%
%IPPOS*%
%AMOC8*
5,1,8,0,0,1.08239X$1,22.5*%
G01*
%ADD10C,3.203200*%
%ADD11C,1.928200*%
%ADD12R,1.808200X1.808200*%
%ADD13C,1.808200*%
%ADD14C,1.238200*%
%ADD15R,1.928200X1.928200*%
%ADD16C,1.828800*%
%ADD17C,1.553200*%
%ADD18C,1.153200*%
%ADD19C,1.320800*%
%ADD20C,2.082800*%
%ADD21R,6.203200X6.203200*%
%ADD22C,1.727200*%
%ADD23C,1.311200*%
%ADD24C,3.335200*%
%ADD25R,1.853200X1.853200*%
%ADD26C,1.853200*%
%ADD27C,2.503200*%
%ADD28C,18.003200*%
%ADD29C,0.959600*%


D10*
X65000Y720000D03*
X835000Y720000D03*
X835000Y40000D03*
X65000Y40000D03*
D11*
X884000Y744000D03*
X884000Y718600D03*
X884000Y693200D03*
X884000Y667800D03*
D12*
X345000Y254000D03*
D13*
X345000Y228600D03*
X345000Y203200D03*
D14*
X135000Y179000D03*
X135000Y191500D03*
D15*
X105000Y139000D03*
D11*
X105000Y113600D03*
D15*
X21000Y630000D03*
D11*
X46400Y630000D03*
D16*
X58200Y425500D03*
X32800Y425500D03*
X32800Y400100D03*
X58200Y400100D03*
X58200Y450900D03*
X32800Y450900D03*
D17*
X97200Y305000D03*
D18*
X14800Y305000D03*
D19*
X234400Y81588D02*
X234400Y70412D01*
X183600Y70412D02*
X183600Y81588D01*
D20*
X882000Y635400D03*
X882000Y610000D03*
X882000Y584600D03*
X446400Y619500D03*
X421000Y619500D03*
X395600Y619500D03*
X444900Y585500D03*
X419500Y585500D03*
X394100Y585500D03*
D21*
X495000Y34000D03*
X495000Y600000D03*
X767000Y600000D03*
X767000Y34000D03*
D22*
X172000Y699380D02*
X172000Y714620D01*
X197400Y714620D02*
X197400Y699380D01*
X222800Y699380D02*
X222800Y714620D01*
X248200Y714620D02*
X248200Y699380D01*
D20*
X292600Y414000D03*
X318000Y414000D03*
X343400Y414000D03*
X292600Y379000D03*
X318000Y379000D03*
X343400Y379000D03*
D23*
X332000Y35250D03*
X324000Y17250D03*
X316000Y35250D03*
X308000Y17250D03*
X300000Y35250D03*
D24*
X352500Y25250D03*
X279500Y25250D03*
D22*
X657600Y29380D02*
X657600Y44620D01*
X683000Y44620D02*
X683000Y29380D01*
X708400Y29380D02*
X708400Y44620D01*
X553600Y44620D02*
X553600Y29380D01*
X579000Y29380D02*
X579000Y44620D01*
X604400Y44620D02*
X604400Y29380D01*
D25*
X635000Y744000D03*
D26*
X609600Y744000D03*
X584200Y744000D03*
X558800Y744000D03*
X533400Y744000D03*
X508000Y744000D03*
D25*
X15000Y18000D03*
D26*
X15000Y43400D03*
X15000Y68800D03*
X15000Y94200D03*
X15000Y119600D03*
X15000Y145000D03*
D15*
X284000Y210000D03*
D11*
X284000Y235400D03*
D27*
X735500Y488000D03*
X735500Y457000D03*
X527500Y457000D03*
X527500Y488000D03*
D28*
X631500Y473000D03*
D29*
X316500Y436500D03*
X146500Y261000D03*
X114500Y242500D03*
X226400Y183714D03*
X195846Y167725D03*
X841700Y527900D03*
X655400Y728300D03*
X454500Y34800D03*
X205333Y160067D03*
X381600Y738052D03*
X218400Y130200D03*
X250000Y112000D03*
X69000Y351000D03*
X86500Y382000D03*
X269233Y182286D03*
X168200Y175400D03*
X190400Y185300D03*
X158800Y207000D03*
X87800Y136200D03*
X122300Y95400D03*
X136000Y231600D03*
X125318Y280318D03*
X300000Y270000D03*
X365500Y302000D03*
X190500Y252500D03*
X168000Y260000D03*
X611800Y576500D03*
X340300Y176600D03*
X391714Y79314D03*
X841600Y673300D03*
X770400Y636700D03*
X150000Y125000D03*
X290400Y168000D03*
X426800Y150600D03*
X806000Y615000D03*
X674100Y714300D03*
X155166Y105000D03*
X550400Y619600D03*
X332000Y665100D03*
X453789Y642911D03*
X443400Y143900D03*
X284100Y161200D03*
X164254Y102254D03*
X168500Y146500D03*
X450400Y446200D03*
X259100Y156614D03*
X362500Y694100D03*
X233500Y202800D03*
X232600Y231200D03*
X203152Y214807D03*
X116500Y214886D03*
X223000Y171400D03*
X370600Y74000D03*
X375800Y38000D03*
X221000Y148200D03*
X309400Y168400D03*
X309500Y270600D03*
X169000Y137000D03*
X382200Y377900D03*
X368000Y163600D03*
X368500Y263600D03*
X213000Y431000D03*
X252000Y354000D03*
X189662Y160841D03*
X433500Y54000D03*
X204000Y472400D03*
X136474Y240826D03*
X206600Y312900D03*
X329700Y436528D03*
X444000Y544000D03*
X515100Y544100D03*
X583600Y690200D03*
X61552Y177500D03*
X90000Y225000D03*
X205500Y237000D03*
X71000Y177500D03*
X97000Y219000D03*
X205500Y227847D03*
X798500Y642500D03*
X798500Y684000D03*
X291000Y307000D03*
X292000Y326000D03*
X304000Y320000D03*
X303500Y473700D03*
X477000Y652400D03*
X392100Y720300D03*
X483500Y562900D03*
X278000Y131700D03*
X624600Y679300D03*
X568600Y694000D03*
X212416Y189953D03*
X251600Y221300D03*
M02*
