G04 EAGLE Gerber RS-274X export*
G75*
%MOMM*%
%FSLAX34Y34*%
%LPD*%
%INvias*%
%IPPOS*%
%AMOC8*
5,1,8,0,0,1.08239X$1,22.5*%
G01*
%ADD10C,0.756400*%


D10*
X316500Y436500D03*
X146500Y261000D03*
X114500Y242500D03*
X226400Y183714D03*
X195846Y167725D03*
X841700Y527900D03*
X655400Y728300D03*
X454500Y34800D03*
X205333Y160067D03*
X381600Y738052D03*
X218400Y130200D03*
X250000Y112000D03*
X69000Y351000D03*
X86500Y382000D03*
X269233Y182286D03*
X168200Y175400D03*
X190400Y185300D03*
X158800Y207000D03*
X87800Y136200D03*
X122300Y95400D03*
X136000Y231600D03*
X125318Y280318D03*
X300000Y270000D03*
X365500Y302000D03*
X190500Y252500D03*
X168000Y260000D03*
X611800Y576500D03*
X340300Y176600D03*
X391714Y79314D03*
X841600Y673300D03*
X770400Y636700D03*
X150000Y125000D03*
X290400Y168000D03*
X426800Y150600D03*
X806000Y615000D03*
X674100Y714300D03*
X155166Y105000D03*
X550400Y619600D03*
X332000Y665100D03*
X453789Y642911D03*
X443400Y143900D03*
X284100Y161200D03*
X164254Y102254D03*
X168500Y146500D03*
X450400Y446200D03*
X259100Y156614D03*
X362500Y694100D03*
X233500Y202800D03*
X232600Y231200D03*
X203152Y214807D03*
X116500Y214886D03*
X223000Y171400D03*
X370600Y74000D03*
X375800Y38000D03*
X221000Y148200D03*
X309400Y168400D03*
X309500Y270600D03*
X169000Y137000D03*
X382200Y377900D03*
X368000Y163600D03*
X368500Y263600D03*
X213000Y431000D03*
X252000Y354000D03*
X189662Y160841D03*
X433500Y54000D03*
X204000Y472400D03*
X136474Y240826D03*
X206600Y312900D03*
X329700Y436528D03*
X444000Y544000D03*
X515100Y544100D03*
X583600Y690200D03*
X61552Y177500D03*
X90000Y225000D03*
X205500Y237000D03*
X71000Y177500D03*
X97000Y219000D03*
X205500Y227847D03*
X798500Y642500D03*
X798500Y684000D03*
X291000Y307000D03*
X292000Y326000D03*
X304000Y320000D03*
X303500Y473700D03*
X477000Y652400D03*
X392100Y720300D03*
X483500Y562900D03*
X278000Y131700D03*
X624600Y679300D03*
X568600Y694000D03*
X212416Y189953D03*
X251600Y221300D03*
M02*
